External Loads File
version=1
nRows=93
nColumns=13
Range=5.000000e-03-10 seconds
endheader
time 	forceRightX 	forceRightY 	forceRightZ 	pointRightX 	pointRightY 	pointRightZ 	forceLeftX 	forceLeftY 	forceLeftZ 	pointLeftX 	pointLeftY 	pointLeftZ 		
5.005000 -83.605405 402.203490 -0.000000 0.318276 0.491296 -0.153638 362.925362 516.915768 -0.000000 0.199388 0.171341 -0.380256
5.010000 -93.099872 434.184719 -0.000000 0.325387 0.485710 -0.153244 383.640704 483.513140 -0.000000 0.190916 0.176229 -0.380248
5.015000 -103.805442 467.501437 -0.000000 0.332502 0.479502 -0.152900 396.910865 440.817803 -0.000000 0.182612 0.181688 -0.380192
5.020000 -116.019768 501.104762 -0.000000 0.339261 0.472623 -0.152409 399.087419 388.733713 -0.000000 0.174591 0.187633 -0.380120
5.025000 -128.791121 534.178763 -0.000000 0.346118 0.465213 -0.152504 387.862212 327.553637 -0.000000 0.166882 0.194129 -0.380213
5.030000 -141.691793 565.946130 -0.000000 0.352993 0.457159 -0.152262 361.438048 259.961436 -0.000000 0.159507 0.201115 -0.380167
5.035000 -155.664389 595.543677 -0.000000 0.359437 0.448954 -0.152190 320.036753 191.579751 -0.000000 0.152531 0.208455 -0.380198
5.040000 -169.221984 623.030066 -0.000000 0.365764 0.440255 -0.152186 268.573052 128.045652 -0.000000 0.145966 0.216354 -0.380230
5.045000 -182.699144 648.279844 -0.000000 0.371585 0.431077 -0.151866 213.881729 75.624883 -0.000000 0.139880 0.224649 -0.380249
5.050000 -195.006232 671.727169 -0.000000 0.377541 0.421634 -0.151941 162.930067 37.221053 -0.000000 0.134345 0.233351 -0.380276
5.055000 -206.530765 693.465682 -0.000000 0.382968 0.411872 -0.151771 120.181633 12.979832 -0.000000 0.129374 0.242398 -0.380243
5.060000 -216.759049 713.886671 -0.000000 0.387747 0.401687 -0.151402 87.694110 0.621043 -0.000000 0.124992 0.251702 -0.380228
5.065000 -225.299409 733.401984 -0.000000 0.391949 0.391295 -0.150298 65.580200 -2.937817 -0.000000 0.121211 0.261331 -0.380188
5.070000 -231.296904 752.637504 -0.000000 0.396188 0.380710 -0.150712 52.629059 -0.844928 -0.000000 0.118063 0.271196 -0.380071
5.075000 -235.268740 771.852093 -0.000000 0.399684 0.369974 -0.150321 46.908358 4.270234 -0.000000 0.115510 0.281330 -0.379922
5.080000 -236.469569 791.678676 -0.000000 0.402700 0.358986 -0.149985 46.251197 10.285427 -0.000000 0.113619 0.291697 -0.379779
5.085000 -235.414333 812.296277 -0.000000 0.405103 0.348009 -0.149510 48.559783 15.820980 -0.000000 0.112403 0.302269 -0.379669
5.090000 -232.085958 833.953300 -0.000000 0.406910 0.336995 -0.148941 52.025884 20.099206 -0.000000 0.111828 0.312879 -0.379456
5.095000 -226.016851 856.886608 -0.000000 0.408077 0.325952 -0.148324 55.286671 22.819536 -0.000000 0.111903 0.323619 -0.379251
5.100000 -217.849213 880.884764 -0.000000 0.408675 0.315085 -0.147882 57.414200 24.049332 -0.000000 0.112601 0.334404 -0.379060
5.105000 -205.251123 906.336169 -0.000000 0.408746 0.304226 -0.147982 57.992815 23.756513 -0.000000 0.113930 0.345828 -0.378867
5.110000 -192.627749 931.924944 -0.000000 0.408181 0.293402 -0.147534 56.764673 22.316491 -0.000000 0.115859 0.356467 -0.378765
5.115000 -178.230973 957.719027 -0.000000 0.406742 0.282772 -0.147366 53.833892 19.673703 -0.000000 0.118372 0.366983 -0.378724
5.120000 -163.602847 983.024992 -0.000000 0.404956 0.272280 -0.146635 49.354184 15.974806 -0.000000 0.120690 0.377250 -0.377856
5.125000 -145.532997 1007.924497 -0.000000 0.402586 0.261807 -0.146534 43.667618 11.140736 -0.000000 0.124398 0.387570 -0.377913
5.130000 -126.970252 1031.397617 -0.000000 0.399726 0.251759 -0.146516 37.046122 5.435040 -0.000000 0.128698 0.397647 -0.378070
5.135000 -107.252659 1052.915098 -0.000000 0.396334 0.241901 -0.146484 29.777222 -1.064309 -0.000000 0.133507 0.407437 -0.378058
5.140000 -86.771911 1071.656384 -0.000000 0.392479 0.232409 -0.146731 22.064423 -8.279891 -0.000000 0.138806 0.416982 -0.378032
5.145000 -65.247703 1086.799780 -0.000000 0.387921 0.223335 -0.146530 14.022731 -16.146679 -0.000000 0.144550 0.426207 -0.377909
5.150000 -41.667630 1097.573111 -0.000000 0.382893 0.214599 -0.146360 5.661398 -24.487851 -0.000000 0.150890 0.435454 -0.378182
5.155000 -18.338670 1103.168572 -0.000000 0.377321 0.206485 -0.146169 -2.969335 -32.963595 -0.000000 0.157453 0.444468 -0.377085
5.160000 4.381386 1103.080212 -0.000000 0.371324 0.198642 -0.145982 -11.816413 -41.136519 -0.000000 0.164190 0.452986 -0.376631
5.165000 26.181131 1096.932637 -0.000000 0.364940 0.191400 -0.145847 -20.815019 -48.401685 -0.000000 0.171360 0.461011 -0.376259
5.170000 52.252230 1084.209815 -0.000000 0.357898 0.184658 -0.145363 -30.103885 -53.859340 -0.000000 0.180127 0.469101 -0.377245
5.175000 69.233690 1065.288063 -0.000000 0.350791 0.178516 -0.145163 -38.770454 -57.069338 -0.000000 0.187269 0.475800 -0.376324
5.180000 86.708204 1039.700843 -0.000000 0.343468 0.172818 -0.145028 -46.909794 -57.157491 -0.000000 0.195285 0.482111 -0.376279
5.185000 102.402614 1007.487763 -0.000000 0.336026 0.167522 -0.144892 -54.041435 -53.866723 -0.000000 0.203598 0.487645 -0.376267
5.190000 117.271164 968.413835 -0.000000 0.328305 0.162838 -0.144654 -59.903169 -47.245919 -0.000000 0.212353 0.492512 -0.376692
5.195000 129.729951 922.484486 -0.000000 0.320375 0.158686 -0.144391 -64.234304 -37.860354 -0.000000 0.220889 0.496819 -0.376864
5.200000 140.826137 869.442873 -0.000000 0.312219 0.155289 -0.143745 -67.109061 -26.277948 -0.000000 0.229596 0.500564 -0.377054
5.205000 150.178160 809.391568 -0.000000 0.303987 0.152589 -0.143369 -68.707654 -13.070640 -0.000000 0.238531 0.503545 -0.377271
5.210000 155.440180 743.264927 -0.000000 0.295812 0.150431 -0.142953 -69.329365 1.312866 -0.000000 0.246760 0.505797 -0.377550
5.215000 158.924880 671.655598 -0.000000 0.287596 0.148927 -0.142628 -69.415655 17.285297 -0.000000 0.255330 0.507620 -0.377742
5.220000 159.228475 596.394183 -0.000000 0.279406 0.148349 -0.142453 -69.411718 35.306634 -0.000000 0.263733 0.508735 -0.377906
5.225000 156.498711 519.423375 -0.000000 0.271230 0.148488 -0.142676 -69.778593 56.095752 -0.000000 0.271910 0.509101 -0.378418
5.230000 151.595883 442.701365 -0.000000 0.262920 0.149383 -0.142698 -70.854983 80.358487 -0.000000 0.280107 0.508851 -0.378200
5.235000 144.598548 368.437711 -0.000000 0.254583 0.150998 -0.142771 -73.006938 108.282799 -0.000000 0.288158 0.507834 -0.378264
5.240000 136.417426 298.400946 -0.000000 0.246084 0.153254 -0.142945 -76.438933 139.498783 -0.000000 0.296070 0.504650 -0.378302
5.245000 127.383999 234.302640 -0.000000 0.237450 0.156251 -0.143113 -81.600955 173.069769 -0.000000 0.303910 0.501925 -0.378193
5.250000 118.090909 177.362533 -0.000000 0.228744 0.159611 -0.143458 -89.008199 208.260783 -0.000000 0.311474 0.498151 -0.378288
5.255000 109.174398 128.221831 -0.000000 0.220031 0.163626 -0.143843 -99.019222 244.784286 -0.000000 0.318798 0.493548 -0.378612
5.260000 101.083721 87.050216 -0.000000 0.211383 0.168253 -0.144125 -111.855242 282.483286 -0.000000 0.325805 0.488146 -0.379105
5.265000 94.195662 53.550122 -0.000000 0.202843 0.173496 -0.144398 -127.316552 321.182858 -0.000000 0.332516 0.481890 -0.379801
5.270000 88.724969 27.177570 -0.000000 0.194472 0.179279 -0.144710 -144.962120 360.527996 -0.000000 0.339011 0.475003 -0.380510
5.275000 84.800329 7.206951 -0.000000 0.186360 0.185731 -0.144929 -164.030249 400.046805 -0.000000 0.345349 0.467571 -0.381214
5.280000 82.471201 -7.028769 -0.000000 0.178525 0.192696 -0.145097 -184.333173 438.907192 -0.000000 0.351527 0.460481 -0.381800
5.285000 81.708313 -16.534024 -0.000000 0.171061 0.200086 -0.145385 -204.140195 476.931112 -0.000000 0.357638 0.452442 -0.382192
5.290000 82.393536 -22.038194 -0.000000 0.164082 0.208059 -0.145617 -223.075582 513.494064 -0.000000 0.363417 0.443986 -0.382356
5.295000 84.300648 -24.417874 -0.000000 0.157564 0.216335 -0.145650 -239.675545 548.645497 -0.000000 0.369507 0.435184 -0.382684
5.300000 87.215345 -24.189429 -0.000000 0.151536 0.224893 -0.145783 -254.362786 581.865393 -0.000000 0.375051 0.426189 -0.382742
5.305000 90.761661 -22.184596 -0.000000 0.146172 0.233857 -0.145707 -265.238659 613.819924 -0.000000 0.380285 0.416610 -0.382753
5.310000 94.564055 -19.006489 -0.000000 0.141325 0.243088 -0.145760 -271.711391 644.635170 -0.000000 0.385174 0.406861 -0.382871
5.315000 98.183297 -15.321815 -0.000000 0.137277 0.252556 -0.145694 -272.541956 674.628625 -0.000000 0.389645 0.396710 -0.382683
5.320000 101.193857 -11.738955 -0.000000 0.133876 0.262303 -0.145680 -266.565287 703.878888 -0.000000 0.393577 0.386393 -0.382585
5.325000 103.214166 -8.911888 -0.000000 0.130931 0.272322 -0.145808 -251.710516 732.427418 -0.000000 0.396981 0.375752 -0.382608
5.330000 103.960386 -7.149143 -0.000000 0.128681 0.282605 -0.145927 -227.590782 759.257243 -0.000000 0.399833 0.365075 -0.382657
5.335000 103.217572 -6.735601 -0.000000 0.126986 0.292992 -0.146116 -193.782622 783.250818 -0.000000 0.402093 0.354235 -0.382765
5.340000 100.860994 -7.893913 -0.000000 0.125788 0.303693 -0.146389 -150.743627 803.227758 -0.000000 0.403779 0.343263 -0.382854
5.345000 96.856600 -10.585462 -0.000000 0.125317 0.314587 -0.146394 -101.555202 817.953418 -0.000000 0.404969 0.332285 -0.382940
5.350000 91.227853 -14.744151 -0.000000 0.125247 0.325494 -0.146710 -49.883214 826.946774 -0.000000 0.405585 0.321247 -0.383064
5.355000 84.029515 -20.268602 -0.000000 0.125696 0.336606 -0.146794 0.791135 830.562142 -0.000000 0.405630 0.310145 -0.383139
5.360000 75.407722 -26.721436 -0.000000 0.126844 0.347793 -0.146843 45.261048 830.013507 -0.000000 0.405418 0.299168 -0.383801
5.365000 65.606277 -33.594197 -0.000000 0.128413 0.358897 -0.147098 79.273904 827.560191 -0.000000 0.404087 0.288361 -0.383234
5.370000 54.997973 -40.314084 -0.000000 0.130402 0.369951 -0.147757 99.252401 826.253508 -0.000000 0.402387 0.277764 -0.383169
5.375000 44.037031 -46.379308 -0.000000 0.133227 0.380827 -0.147880 103.270740 829.492660 -0.000000 0.400149 0.267459 -0.383109
5.380000 33.201218 -51.393161 -0.000000 0.136445 0.391402 -0.148590 91.389216 840.339363 -0.000000 0.397303 0.257363 -0.383031
5.385000 22.846835 -55.114177 -0.000000 0.140009 0.401967 -0.148984 67.504316 860.268047 -0.000000 0.393776 0.247614 -0.382966
5.390000 13.247935 -57.351255 -0.000000 0.144271 0.411985 -0.149358 37.839326 888.149902 -0.000000 0.389656 0.238071 -0.382820
5.395000 4.469851 -57.974763 -0.000000 0.149073 0.421851 -0.149754 10.666526 920.092229 -0.000000 0.384983 0.228893 -0.382817
5.400000 -3.483338 -56.821800 -0.000000 0.154262 0.431404 -0.150129 -8.798096 951.202840 -0.000000 0.379735 0.220151 -0.382740
5.405000 -10.803786 -53.649865 -0.000000 0.160075 0.440747 -0.150409 -16.897595 977.304760 -0.000000 0.373915 0.211743 -0.382677
5.410000 -17.572462 -48.121400 -0.000000 0.166300 0.449391 -0.150826 -15.419110 995.609071 -0.000000 0.367683 0.203656 -0.382730
5.415000 -23.955436 -39.799888 -0.000000 0.172503 0.457868 -0.151465 -6.198120 1004.766125 -0.000000 0.360937 0.196207 -0.382637
5.420000 -30.108558 -28.128511 -0.000000 0.179907 0.465382 -0.151406 10.511088 1004.551707 -0.000000 0.353765 0.189213 -0.382573
5.425000 -35.955297 -12.649212 -0.000000 0.187509 0.472923 -0.152464 31.943233 995.373781 -0.000000 0.346211 0.182709 -0.382590
5.430000 -41.348824 6.815751 -0.000000 0.195310 0.479484 -0.152731 54.358556 978.078068 -0.000000 0.338293 0.176809 -0.382514
5.435000 -46.097048 30.172748 -0.000000 0.203374 0.485533 -0.153209 77.083402 953.566614 -0.000000 0.330091 0.171429 -0.382433
5.440000 -49.847900 56.877147 -0.000000 0.211962 0.491245 -0.153750 99.375792 922.751533 -0.000000 0.321629 0.166701 -0.382282
5.445000 -52.464140 85.743483 -0.000000 0.220306 0.495862 -0.154287 117.586265 887.164562 -0.000000 0.312957 0.162600 -0.382202
5.450000 -53.677348 115.527994 -0.000000 0.228913 0.500035 -0.154694 133.470323 848.307378 -0.000000 0.304093 0.159176 -0.382036
5.455000 -53.757929 144.787908 -0.000000 0.237203 0.503481 -0.155016 146.122440 808.510939 -0.000000 0.295111 0.156427 -0.381954
5.460000 -52.954906 172.545465 -0.000000 0.245432 0.505998 -0.155137 157.535790 769.869838 -0.000000 0.286042 0.154432 -0.381818
5.465000 -51.675048 198.295278 -0.000000 0.253558 0.508014 -0.155265 169.379842 734.285083 -0.000000 0.276899 0.153207 -0.381677
